<svg xmlns="http://www.w3.org/2000/svg" version="1.1" xmlns:xlink="http://www.w3.org/1999/xlink" xmlns:svgjs="http://svgjs.dev/svgjs" width="1000" height="750" viewBox="0 0 1000 750"><rect width="1000" height="750" fill="#6936f5"></rect><g transform="matrix(0.834,0,0,0.834,82.49454545454535,232.79773546333487)"><svg viewBox="0 0 396 135" data-background-color="#6936f5" preserveAspectRatio="xMidYMid meet" height="340" width="1000" xmlns="http://www.w3.org/2000/svg" xmlns:xlink="http://www.w3.org/1999/xlink"><g id="tight-bounds" transform="matrix(1,0,0,1,0.24000000000003752,0.2010358035329034)"><svg viewBox="0 0 395.5199999999999 134.59792839293422" height="134.59792839293422" width="395.5199999999999"><g><svg viewBox="0 0 395.5199999999999 134.59792839293422" height="134.59792839293422" width="395.5199999999999"><g transform="matrix(1,0,0,1,0,83.18691954791436)"><svg viewBox="0 0 395.5199999999999 51.41100884501986" height="51.41100884501986" width="395.5199999999999"><g id="textblocktransform"><svg viewBox="0 0 395.5199999999999 51.41100884501986" height="51.41100884501986" width="395.5199999999999" id="textblock"><g><svg viewBox="0 0 395.5199999999999 51.41100884501986" height="51.41100884501986" width="395.5199999999999"><g transform="matrix(1,0,0,1,0,0)"><svg width="395.5199999999999" viewBox="-5.2 -38.9 390.02 50.7" height="51.41100884501986" data-palette-color="#ffffff"><path d="M13.25-30.55L3.05-30.55 3.05-38.9 13.25-38.9 13.25-30.55ZM2.7 11.8Q0.65 11.8-1.53 11.45-3.7 11.1-5.2 10.7L-5.2 10.7-5.2 2.55Q-2.85 2.9-1 2.9L-1 2.9Q2.85 2.9 2.85-0.7L2.85-0.7 2.85-19.6-0.5-19.6-0.5-27.8 14.35-27.8 14.35-1.7Q14.35 5.15 11.45 8.47 8.55 11.8 2.7 11.8L2.7 11.8ZM31.45 0.7Q24.35 0.7 20.35-3.03 16.35-6.75 16.35-13.9L16.35-13.9Q16.35-21.05 20.35-24.78 24.35-28.5 31.45-28.5L31.45-28.5Q38.65-28.5 42.6-24.73 46.55-20.95 46.55-13.9L46.55-13.9Q46.55-6.75 42.55-3.03 38.55 0.7 31.45 0.7L31.45 0.7ZM31.45-8.2Q32.9-8.2 33.62-8.97 34.35-9.75 34.35-11.4L34.35-11.4 34.35-16.4Q34.35-18.05 33.62-18.82 32.9-19.6 31.45-19.6L31.45-19.6Q30-19.6 29.27-18.82 28.55-18.05 28.55-16.4L28.55-16.4 28.55-11.4Q28.55-9.75 29.27-8.97 30-8.2 31.45-8.2L31.45-8.2ZM79.15-8.2L81.34-8.2 81.34 0 65.55 0 65.55-8.2 67.65-8.2 67.65-16.4Q67.65-18.05 66.95-18.82 66.25-19.6 64.84-19.6L64.84-19.6Q61.85-19.6 61.85-16.4L61.85-16.4 61.85-8.2 63.95-8.2 63.95 0 48.15 0 48.15-8.2 50.35-8.2 50.35-30.7 48.15-30.7 48.15-38.9 61.85-38.9 61.85-23.9Q63.7-26.2 65.84-27.35 68-28.5 70.84-28.5L70.84-28.5Q75-28.5 77.07-25.9 79.15-23.3 79.15-18.75L79.15-18.75 79.15-8.2ZM113.94-8.2L116.14-8.2 116.14 0 100.34 0 100.34-8.2 102.44-8.2 102.44-16.4Q102.44-18.05 101.74-18.82 101.04-19.6 99.64-19.6L99.64-19.6Q96.64-19.6 96.64-16.4L96.64-16.4 96.64-8.2 98.74-8.2 98.74 0 82.94 0 82.94-8.2 85.14-8.2 85.14-19.6 82.94-19.6 82.94-27.8 96.64-27.8 96.64-23.9Q100.24-28.5 105.64-28.5L105.64-28.5Q109.79-28.5 111.87-25.9 113.94-23.3 113.94-18.75L113.94-18.75 113.94-8.2ZM139.19 0.7Q136.64 0.7 134.67-0.55 132.69-1.8 131.44-3.4L131.44-3.4 131.44 0 117.74 0 117.74-8.2 119.94-8.2 119.94-30.7 117.74-30.7 117.74-38.9 131.44-38.9 131.44-24.4Q132.69-26 134.67-27.25 136.64-28.5 139.19-28.5L139.19-28.5Q144.29-28.5 146.87-24.7 149.44-20.9 149.44-13.9L149.44-13.9Q149.44-6.9 146.87-3.1 144.29 0.7 139.19 0.7L139.19 0.7ZM134.34-8.2Q135.79-8.2 136.52-8.97 137.24-9.75 137.24-11.4L137.24-11.4 137.24-16.4Q137.24-18.05 136.52-18.82 135.79-19.6 134.34-19.6L134.34-19.6Q132.89-19.6 132.17-18.82 131.44-18.05 131.44-16.4L131.44-16.4 131.44-11.4Q131.44-9.75 132.17-8.97 132.89-8.2 134.34-8.2L134.34-8.2ZM177.79-8.2L179.99-8.2 179.99 0 166.79 0 166.79-3.4Q165.69-1.8 163.71-0.55 161.74 0.7 158.89 0.7L158.89 0.7Q155.14 0.7 152.99-1.3 150.84-3.3 150.84-6.95L150.84-6.95Q150.84-16.4 166.89-16.65L166.89-16.65Q166.74-18.35 165.59-18.98 164.44-19.6 161.69-19.6L161.69-19.6Q159.44-19.6 156.86-19.13 154.29-18.65 152.14-17.85L152.14-17.85 152.14-27.05Q154.79-27.7 157.89-28.1 160.99-28.5 163.94-28.5L163.94-28.5Q171.39-28.5 174.59-25.8 177.79-23.1 177.79-17.45L177.79-17.45 177.79-8.2ZM166.79-11.4L166.79-11.7Q164.54-11.7 163.31-11.1 162.09-10.5 162.09-9.1L162.09-9.1Q162.09-8.25 162.61-7.73 163.14-7.2 164.09-7.2L164.09-7.2Q165.39-7.2 166.09-8.3 166.79-9.4 166.79-11.4L166.79-11.4ZM197.49 0.05L181.59 0.05 181.59-8.2 183.79-8.2 183.79-30.7 181.59-30.7 181.59-38.9 195.29-38.9 195.29-8.2 197.49-8.2 197.49 0.05ZM220.53 0.7Q217.98 0.7 216.01-0.55 214.03-1.8 212.78-3.4L212.78-3.4 212.78 0 199.08 0 199.08-8.2 201.28-8.2 201.28-30.7 199.08-30.7 199.08-38.9 212.78-38.9 212.78-24.4Q214.03-26 216.01-27.25 217.98-28.5 220.53-28.5L220.53-28.5Q225.63-28.5 228.21-24.7 230.78-20.9 230.78-13.9L230.78-13.9Q230.78-6.9 228.21-3.1 225.63 0.7 220.53 0.7L220.53 0.7ZM215.68-8.2Q217.13-8.2 217.86-8.97 218.58-9.75 218.58-11.4L218.58-11.4 218.58-16.4Q218.58-18.05 217.86-18.82 217.13-19.6 215.68-19.6L215.68-19.6Q214.23-19.6 213.51-18.82 212.78-18.05 212.78-16.4L212.78-16.4 212.78-11.4Q212.78-9.75 213.51-8.97 214.23-8.2 215.68-8.2L215.68-8.2ZM259.13-8.2L261.33-8.2 261.33 0 248.13 0 248.13-3.4Q247.03-1.8 245.06-0.55 243.08 0.7 240.23 0.7L240.23 0.7Q236.48 0.7 234.33-1.3 232.18-3.3 232.18-6.95L232.18-6.95Q232.18-16.4 248.23-16.65L248.23-16.65Q248.08-18.35 246.93-18.98 245.78-19.6 243.03-19.6L243.03-19.6Q240.78-19.6 238.21-19.13 235.63-18.65 233.48-17.85L233.48-17.85 233.48-27.05Q236.13-27.7 239.23-28.1 242.33-28.5 245.28-28.5L245.28-28.5Q252.73-28.5 255.93-25.8 259.13-23.1 259.13-17.45L259.13-17.45 259.13-8.2ZM248.13-11.4L248.13-11.7Q245.88-11.7 244.66-11.1 243.43-10.5 243.43-9.1L243.43-9.1Q243.43-8.25 243.96-7.73 244.48-7.2 245.43-7.2L245.43-7.2Q246.73-7.2 247.43-8.3 248.13-9.4 248.13-11.4L248.13-11.4ZM284.28-28.5Q285.28-28.5 286.18-28.3 287.08-28.1 287.68-27.8L287.68-27.8 287.68-18.25Q285.63-19.1 283.28-19.1L283.28-19.1Q280.13-19.1 278.43-17.45 276.73-15.8 276.73-12.55L276.73-12.55 276.73-8.2 281.23-8.2 281.23 0 263.03 0 263.03-8.2 265.23-8.2 265.23-19.6 263.03-19.6 263.03-27.8 276.73-27.8 276.73-24.15Q278.13-26.25 279.93-27.38 281.73-28.5 284.28-28.5L284.28-28.5ZM304.18 0.7Q297.08 0.7 293.08-3.03 289.08-6.75 289.08-13.9L289.08-13.9Q289.08-21.05 293.08-24.78 297.08-28.5 304.18-28.5L304.18-28.5Q311.38-28.5 315.33-24.73 319.28-20.95 319.28-13.9L319.28-13.9Q319.28-6.75 315.28-3.03 311.28 0.7 304.18 0.7L304.18 0.7ZM304.18-8.2Q305.63-8.2 306.35-8.97 307.08-9.75 307.08-11.4L307.08-11.4 307.08-16.4Q307.08-18.05 306.35-18.82 305.63-19.6 304.18-19.6L304.18-19.6Q302.73-19.6 302-18.82 301.28-18.05 301.28-16.4L301.28-16.4 301.28-11.4Q301.28-9.75 302-8.97 302.73-8.2 304.18-8.2L304.18-8.2ZM351.87-8.2L354.07-8.2 354.07 0 338.27 0 338.27-8.2 340.37-8.2 340.37-16.4Q340.37-18.05 339.67-18.82 338.97-19.6 337.57-19.6L337.57-19.6Q334.57-19.6 334.57-16.4L334.57-16.4 334.57-8.2 336.67-8.2 336.67 0 320.87 0 320.87-8.2 323.07-8.2 323.07-19.6 320.87-19.6 320.87-27.8 334.57-27.8 334.57-23.9Q338.17-28.5 343.57-28.5L343.57-28.5Q347.72-28.5 349.8-25.9 351.87-23.3 351.87-18.75L351.87-18.75 351.87-8.2ZM382.62-8.2L384.82-8.2 384.82 0 371.62 0 371.62-3.4Q370.52-1.8 368.55-0.55 366.57 0.7 363.72 0.7L363.72 0.7Q359.97 0.7 357.82-1.3 355.67-3.3 355.67-6.95L355.67-6.95Q355.67-16.4 371.72-16.65L371.72-16.65Q371.57-18.35 370.42-18.98 369.27-19.6 366.52-19.6L366.52-19.6Q364.27-19.6 361.7-19.13 359.12-18.65 356.97-17.85L356.97-17.85 356.97-27.05Q359.62-27.7 362.72-28.1 365.82-28.5 368.77-28.5L368.77-28.5Q376.22-28.5 379.42-25.8 382.62-23.1 382.62-17.45L382.62-17.45 382.62-8.2ZM371.62-11.4L371.62-11.7Q369.37-11.7 368.15-11.1 366.92-10.5 366.92-9.1L366.92-9.1Q366.92-8.25 367.45-7.73 367.97-7.2 368.92-7.2L368.92-7.2Q370.22-7.2 370.92-8.3 371.62-9.4 371.62-11.4L371.62-11.4Z" opacity="1" transform="matrix(1,0,0,1,0,0)" fill="#ffffff" class="wordmark-text-0" data-fill-palette-color="primary" id="text-0"></path></svg></g></svg></g></svg></g></svg></g><g transform="matrix(1,0,0,1,162.23499288809126,0)"><svg viewBox="0 0 71.05001422381744 71.05001422381746" height="71.05001422381746" width="71.05001422381744"><g><svg></svg></g><g id="icon-0"><svg viewBox="0 0 71.05001422381744 71.05001422381746" height="71.05001422381746" width="71.05001422381744"><g><path transform="scale(0.7105,0.7105)" d="M30 100c-16.569 0-30-13.431-30-30v-40c0-16.569 13.431-30 30-30h40c16.569 0 30 13.431 30 30v40c0 16.569-13.431 30-30 30z" fill="#ffffff" fill-rule="nonzero" stroke="none" stroke-width="1" stroke-linecap="butt" stroke-linejoin="miter" stroke-miterlimit="10" stroke-dasharray="" stroke-dashoffset="0" font-family="none" font-weight="none" font-size="none" text-anchor="none" style="mix-blend-mode: normal" data-fill-palette-color="accent"></path></g><g transform="matrix(1,0,0,1,16.957270061417756,14.21000284476349)"><svg viewBox="0 0 37.13547410098193 42.630008534290475" height="42.630008534290475" width="37.13547410098193"><g><svg xmlns="http://www.w3.org/2000/svg" xmlns:xlink="http://www.w3.org/1999/xlink" version="1.1" x="0" y="0" viewBox="10.1 5.2 78.4 90" enable-background="new 0 0 100 100" xml:space="preserve" height="42.630008534290475" width="37.13547410098193" class="icon-z$-0" data-fill-palette-color="quaternary" id="z$-0"><polygon fill-rule="evenodd" clip-rule="evenodd" fill="#6936f5" points="88.5,28.2 68.4,59.9 68.5,22.3 " data-fill-palette-color="quaternary"></polygon><polygon fill-rule="evenodd" clip-rule="evenodd" fill="#6936f5" points="49.8,5.2 67.2,38.5 34.7,19.6 " data-fill-palette-color="quaternary"></polygon><polygon fill-rule="evenodd" clip-rule="evenodd" fill="#6936f5" points="67.8,38.3 67.8,22.3 60.8,24.5 " data-fill-palette-color="quaternary"></polygon><polygon fill-rule="evenodd" clip-rule="evenodd" fill="#6936f5" points="88.2,73.2 50.6,71.7 83.2,52.9 " data-fill-palette-color="quaternary"></polygon><polygon fill-rule="evenodd" clip-rule="evenodd" fill="#6936f5" points="69.1,60.3 82.8,52.3 77.4,47.4 " data-fill-palette-color="quaternary"></polygon><polygon fill-rule="evenodd" clip-rule="evenodd" fill="#6936f5" points="48.7,95.2 31.5,61.9 63.9,80.9 " data-fill-palette-color="quaternary"></polygon><polygon fill-rule="evenodd" clip-rule="evenodd" fill="#6936f5" points="50.5,72.2 64.2,80.2 65.8,73.1 " data-fill-palette-color="quaternary"></polygon><polygon fill-rule="evenodd" clip-rule="evenodd" fill="#6936f5" points="10.1,72 30.5,40.4 30.1,78 " data-fill-palette-color="quaternary"></polygon><polygon fill-rule="evenodd" clip-rule="evenodd" fill="#6936f5" points="30.9,62.1 30.8,78 37.8,75.8 " data-fill-palette-color="quaternary"></polygon><polygon fill-rule="evenodd" clip-rule="evenodd" fill="#6936f5" points="11,27 48.5,28.9 15.8,47.3 " data-fill-palette-color="quaternary"></polygon><polygon fill-rule="evenodd" clip-rule="evenodd" fill="#6936f5" points="30,40.1 16.1,47.9 21.5,52.9 " data-fill-palette-color="quaternary"></polygon><polygon fill-rule="evenodd" clip-rule="evenodd" fill="#6936f5" points="48.2,28.3 34.5,20.2 32.9,27.4 " data-fill-palette-color="quaternary"></polygon></svg></g></svg></g></svg></g></svg></g><g></g></svg></g><defs></defs></svg><rect width="395.5199999999999" height="134.59792839293422" fill="none" stroke="none" visibility="hidden"></rect></g></svg></g></svg>